<?xml version="1.0" standalone="no"?>
<!DOCTYPE svg PUBLIC "-//W3C//DTD SVG 20010904//EN"
 "http://www.w3.org/TR/2001/REC-SVG-20010904/DTD/svg10.dtd">
<svg version="1.0" xmlns="http://www.w3.org/2000/svg"
 width="1920.000000pt" height="1920.000000pt" viewBox="0 0 1920.000000 1920.000000"
 preserveAspectRatio="xMidYMid meet">
<metadata>
Created by potrace 1.16, written by Peter Selinger 2001-2019
</metadata>
<g transform="translate(0.000000,1920.000000) scale(0.100000,-0.100000)"
fill="#000000" stroke="none">
<path d="M3654 14470 c-494 -148 -851 -409 -964 -704 -60 -154 -62 -266 -11
-497 122 -549 85 -994 -118 -1415 -108 -223 -243 -409 -440 -604 -260 -257
-474 -413 -1150 -839 -418 -264 -625 -432 -709 -573 -100 -168 -142 -335 -142
-558 0 -238 48 -474 145 -712 253 -620 725 -1064 1210 -1138 61 -10 253 -11
812 -6 403 4 756 9 785 11 67 6 1080 23 1798 31 300 3 570 10 600 15 173 29
251 138 220 309 -47 257 -318 659 -787 1166 l-103 111 183 7 c1101 40 1926
450 2379 1182 170 275 272 566 324 929 21 147 24 511 5 660 -117 921 -624
1758 -1388 2292 -155 108 -418 262 -428 251 -1 -2 -8 -27 -14 -56 -45 -215
-270 -387 -583 -447 -107 -20 -248 -21 -323 -1 -205 54 -571 240 -1011 515
l-171 107 -119 -36z m740 -1685 c104 -27 166 -64 246 -144 109 -109 160 -229
160 -371 0 -147 -54 -275 -161 -381 -79 -79 -161 -123 -276 -146 -362 -75
-699 269 -619 630 25 109 68 189 145 266 106 107 227 159 371 160 42 1 102 -6
134 -14z"/>
<path d="M16298 13395 c-1 -2 -30 -6 -63 -9 -33 -3 -67 -7 -75 -10 -8 -3 -28
-7 -45 -10 -16 -2 -82 -23 -145 -46 -63 -23 -126 -44 -140 -46 -13 -3 -30 -10
-37 -16 -7 -6 -13 -7 -13 -3 0 4 -7 2 -15 -5 -8 -7 -15 -9 -15 -5 0 4 -7 1
-17 -6 -9 -8 -18 -13 -20 -11 -1 1 -4 2 -5 1 -2 0 -10 -2 -18 -4 -8 -2 -41
-13 -72 -24 -32 -11 -58 -17 -58 -14 0 3 -6 1 -12 -5 -7 -5 -29 -13 -48 -18
-44 -10 -37 -8 -90 -23 -25 -7 -52 -15 -60 -17 -188 -49 -329 -84 -354 -88
-17 -3 -83 -16 -146 -30 -63 -13 -135 -27 -160 -31 -25 -4 -54 -8 -65 -10 -39
-7 -130 -23 -175 -29 -82 -13 -152 -23 -212 -30 -167 -21 -200 -25 -266 -31
-29 -3 -77 -7 -105 -10 -29 -3 -88 -8 -132 -11 -44 -3 -105 -7 -135 -9 -395
-28 -1115 -24 -1595 10 -55 4 -118 8 -140 10 -95 6 -191 16 -207 21 -30 9 -57
-14 -130 -113 -431 -584 -708 -1265 -812 -1993 -264 -1853 621 -3654 2204
-4483 407 -213 859 -350 1355 -409 168 -20 655 -17 830 6 615 78 1176 285
1675 619 244 164 390 285 625 521 204 204 353 382 490 585 l85 126 20 230 c39
456 69 915 90 1385 5 129 13 298 17 375 16 313 21 -14 22 -1405 1 -1577 -1
-1510 62 -1639 40 -81 143 -186 225 -229 266 -139 594 -34 724 232 22 45 45
107 50 138 7 37 10 564 7 1565 l-3 1508 -22 139 c-55 337 -147 597 -297 838
-155 250 -401 473 -666 605 l-116 58 -13 65 c-8 36 -15 71 -17 78 -2 6 -5 20
-7 30 -3 9 -5 18 -6 20 -2 1 -3 5 -4 10 -5 21 -40 121 -52 149 -8 17 -14 37
-14 45 0 8 -5 19 -11 25 -6 6 -12 17 -13 24 -5 26 -98 217 -147 304 -16 28
-32 58 -35 68 -4 9 -9 17 -13 17 -4 0 -15 17 -26 38 -11 20 -22 39 -25 42 -4
3 -31 41 -61 85 -29 44 -58 85 -64 91 -5 6 -21 25 -35 43 -64 85 -244 267
-345 350 -44 35 -82 67 -85 71 -3 3 -36 25 -75 50 -38 25 -72 47 -75 50 -3 3
-21 13 -40 22 -19 10 -42 22 -50 28 -20 12 -147 68 -172 75 -5 2 -10 4 -13 5
-3 1 -9 4 -15 5 -5 1 -11 3 -12 5 -2 1 -10 3 -18 5 -8 1 -35 8 -60 15 -25 7
-61 14 -80 16 -19 2 -64 8 -100 13 -72 9 -106 11 -112 6z"/>
<path d="M9150 7989 c-361 -36 -720 -186 -1005 -419 -232 -189 -432 -465 -542
-747 -87 -221 -121 -384 -130 -618 -20 -528 172 -1018 543 -1389 276 -275 614
-450 1009 -522 140 -26 478 -26 620 0 515 94 952 378 1240 806 76 113 177 321
219 450 179 551 97 1146 -223 1621 -384 571 -1051 886 -1731 818z"/>
<path d="M15855 5323 c-60 -8 -186 -43 -250 -68 -285 -114 -515 -357 -611
-644 -46 -139 -57 -225 -51 -393 7 -176 28 -261 102 -413 145 -298 392 -495
723 -577 131 -33 350 -30 483 5 210 55 368 146 509 293 99 104 145 170 205
297 74 157 90 233 90 442 0 157 -3 191 -23 265 -113 412 -438 713 -851 785
-77 14 -254 18 -326 8z"/>
</g>
</svg>
